<svg viewBox="0 0 200 200" xmlns="http://www.w3.org/2000/svg">
  <!-- Background -->
  <rect width="200" height="200" fill="#ffffff"/>
  
  <!-- Rounded Square Logo with Split Design Inside -->
  <g transform="translate(100, 100)">
    <!-- White background for inner content area -->
    <rect x="-50" y="-50" width="100" height="100" fill="#ffffff"/>
    
    <!-- Inner content: Split Square Design -->
    <!-- Left half: barcode lines -->
    <rect x="-50" y="-55" width="5" height="110" fill="#1a1a1a"/>
    <rect x="-40" y="-55" width="10" height="110" fill="#1a1a1a"/>
    <rect x="-25" y="-55" width="5" height="110" fill="#1a1a1a"/>
    <rect x="-15" y="-55" width="8" height="110" fill="#1a1a1a"/>
    <rect x="-4" y="-55" width="4" height="110" fill="#1a1a1a"/>
    
    <!-- Right half: QR modules -->
    <rect x="8" y="-48" width="17" height="17" fill="#00d4aa"/>
    <rect x="28" y="-48" width="17" height="17" fill="#1a1a1a"/>
    <rect x="8" y="-27" width="17" height="17" fill="#1a1a1a"/>
    <rect x="28" y="-27" width="17" height="17" fill="#00d4aa"/>
    <rect x="8" y="-6" width="17" height="17" fill="#00d4aa"/>
    <rect x="28" y="-6" width="17" height="17" fill="#1a1a1a"/>
    <rect x="8" y="15" width="17" height="17" fill="#1a1a1a"/>
    <rect x="28" y="15" width="17" height="17" fill="#00d4aa"/>
    <rect x="8" y="36" width="17" height="17" fill="#00d4aa"/>
    <rect x="28" y="36" width="17" height="17" fill="#1a1a1a"/>
    
    <!-- External rounded square border with spacing -->
    <rect x="-65" y="-65" width="130" height="130" rx="20" ry="20" 
          fill="none" stroke="#1a1a1a" stroke-width="4"/>
  </g>
</svg>